<?xml version="1.0" encoding="UTF-8" standalone="no"?>
<!DOCTYPE svg PUBLIC "-//W3C//DTD SVG 1.1//EN"
 "http://www.w3.org/Graphics/SVG/1.1/DTD/svg11.dtd">
<!-- Generated by graphviz version 2.40.1 (20161225.0304)
 -->
<!-- Title: G Pages: 1 -->
<svg width="264pt" height="484pt"
 viewBox="0.00 0.00 264.00 483.90" xmlns="http://www.w3.org/2000/svg" xmlns:xlink="http://www.w3.org/1999/xlink">
<g id="graph0" class="graph" transform="scale(1 1) rotate(0) translate(4 479.895)">
<title>G</title>
<polygon fill="#ffffff" stroke="transparent" points="-4,4 -4,-479.895 260,-479.895 260,4 -4,4"/>
<g id="clust1" class="cluster">
<title>cluster_1</title>
<polygon fill="#b1df89" stroke="#000000" points="8,-80.895 8,-422.895 248,-422.895 248,-80.895 8,-80.895"/>
<text text-anchor="middle" x="205" y="-407.695" font-family="Times,serif" font-size="14.00" fill="#000000">execution</text>
</g>
<!-- runbat -->
<g id="node1" class="node">
<title>runbat</title>
<ellipse fill="#a5cee3" stroke="#000000" cx="128" cy="-373.895" rx="62.2891" ry="18"/>
<text text-anchor="middle" x="128" y="-370.195" font-family="Times,serif" font-size="14.00" fill="#000000">run Batsim</text>
</g>
<!-- batstatus -->
<g id="node2" class="node">
<title>batstatus</title>
<polygon fill="#a5cee3" stroke="#000000" points="128,-320.895 16,-282.895 128,-244.895 240,-282.895 128,-320.895"/>
<text text-anchor="middle" x="128" y="-286.695" font-family="Times,serif" font-size="14.00" fill="#000000">completes</text>
<text text-anchor="middle" x="128" y="-271.695" font-family="Times,serif" font-size="14.00" fill="#000000">successfully?</text>
</g>
<!-- runbat&#45;&gt;batstatus -->
<g id="edge1" class="edge">
<title>runbat&#45;&gt;batstatus</title>
<path fill="none" stroke="#000000" d="M128,-355.4798C128,-348.3875 128,-339.9148 128,-331.3026"/>
<polygon fill="#000000" stroke="#000000" points="131.5001,-331.2029 128,-321.2029 124.5001,-331.2029 131.5001,-331.2029"/>
</g>
<!-- batok -->
<g id="node3" class="node">
<title>batok</title>
<ellipse fill="#a5cee3" stroke="#000000" cx="128" cy="-177.895" rx="61.1893" ry="18"/>
<text text-anchor="middle" x="128" y="-174.195" font-family="Times,serif" font-size="14.00" fill="#000000">Batsim OK</text>
</g>
<!-- batstatus&#45;&gt;batok -->
<g id="edge2" class="edge">
<title>batstatus&#45;&gt;batok</title>
<path fill="none" stroke="#000000" d="M128,-244.6906C128,-231.9407 128,-217.9732 128,-206.1218"/>
<polygon fill="#000000" stroke="#000000" points="131.5001,-205.9284 128,-195.9284 124.5001,-205.9284 131.5001,-205.9284"/>
<text text-anchor="middle" x="140.5" y="-216.695" font-family="Times,serif" font-size="14.00" fill="#000000">yes</text>
</g>
<!-- execend -->
<g id="node4" class="node">
<title>execend</title>
<ellipse fill="#a5cee3" stroke="#000000" cx="128" cy="-106.895" rx="78.7863" ry="18"/>
<text text-anchor="middle" x="128" y="-103.195" font-family="Times,serif" font-size="14.00" fill="#000000">Simulation OK</text>
</g>
<!-- batok&#45;&gt;execend -->
<g id="edge3" class="edge">
<title>batok&#45;&gt;execend</title>
<path fill="none" stroke="#000000" d="M128,-159.6108C128,-152.2972 128,-143.6974 128,-135.5896"/>
<polygon fill="#000000" stroke="#000000" points="131.5001,-135.3641 128,-125.3641 124.5001,-135.3641 131.5001,-135.3641"/>
</g>
<!-- end -->
<g id="node6" class="node">
<title>end</title>
<ellipse fill="#a5cee3" stroke="#000000" cx="128" cy="-31.9475" rx="27.9017" ry="27.9017"/>
<ellipse fill="none" stroke="#000000" cx="128" cy="-31.9475" rx="31.8951" ry="31.8951"/>
<text text-anchor="middle" x="128" y="-28.2475" font-family="Times,serif" font-size="14.00" fill="#000000">end</text>
</g>
<!-- execend&#45;&gt;end -->
<g id="edge5" class="edge">
<title>execend&#45;&gt;end</title>
<path fill="none" stroke="#000000" d="M128,-88.7523C128,-84.3281 128,-79.4087 128,-74.3679"/>
<polygon fill="#000000" stroke="#000000" points="131.5001,-73.9698 128,-63.9698 124.5001,-73.9698 131.5001,-73.9698"/>
</g>
<!-- start -->
<g id="node5" class="node">
<title>start</title>
<ellipse fill="#a5cee3" stroke="#000000" cx="128" cy="-457.895" rx="33.2948" ry="18"/>
<text text-anchor="middle" x="128" y="-454.195" font-family="Times,serif" font-size="14.00" fill="#000000">start</text>
</g>
<!-- start&#45;&gt;runbat -->
<g id="edge4" class="edge">
<title>start&#45;&gt;runbat</title>
<path fill="none" stroke="#000000" d="M128,-439.6683C128,-428.7709 128,-414.6897 128,-402.3537"/>
<polygon fill="#000000" stroke="#000000" points="131.5001,-402.0862 128,-392.0862 124.5001,-402.0863 131.5001,-402.0862"/>
</g>
</g>
</svg>
