<?xml version="1.0" encoding="UTF-8" standalone="no"?>
<!DOCTYPE svg PUBLIC "-//W3C//DTD SVG 1.1//EN"
 "http://www.w3.org/Graphics/SVG/1.1/DTD/svg11.dtd">
<!-- Generated by graphviz version 2.40.1 (20161225.0304)
 -->
<!-- Title: G Pages: 1 -->
<svg width="584pt" height="1121pt"
 viewBox="0.00 0.00 583.55 1121.12" xmlns="http://www.w3.org/2000/svg" xmlns:xlink="http://www.w3.org/1999/xlink">
<g id="graph0" class="graph" transform="scale(1 1) rotate(0) translate(4 1117.1219)">
<title>G</title>
<polygon fill="#ffffff" stroke="transparent" points="-4,4 -4,-1117.1219 579.5477,-1117.1219 579.5477,4 -4,4"/>
<g id="clust1" class="cluster">
<title>cluster_0</title>
<polygon fill="#b1df89" stroke="#000000" points="8,-684.0265 8,-1050.1219 470,-1050.1219 470,-684.0265 8,-684.0265"/>
<text text-anchor="middle" x="411" y="-1034.9219" font-family="Times,serif" font-size="14.00" fill="#000000">context check</text>
</g>
<g id="clust2" class="cluster">
<title>cluster_1</title>
<polygon fill="#b1df89" stroke="#000000" points="62,-170.7853 62,-665.0265 316,-665.0265 316,-170.7853 62,-170.7853"/>
<text text-anchor="middle" x="273" y="-649.8265" font-family="Times,serif" font-size="14.00" fill="#000000">execution</text>
</g>
<g id="clust3" class="cluster">
<title>cluster_2</title>
<polygon fill="#b1df89" stroke="#000000" points="324,-274.333 324,-388.2864 508,-388.2864 508,-274.333 324,-274.333"/>
<text text-anchor="middle" x="471.5" y="-373.0864" font-family="Times,serif" font-size="14.00" fill="#000000">cleanup</text>
</g>
<!-- sockready -->
<g id="node1" class="node">
<title>sockready</title>
<polygon fill="#a5cee3" stroke="#000000" points="120,-1019.1219 16,-966.1219 120,-913.1219 224,-966.1219 120,-1019.1219"/>
<text text-anchor="middle" x="120" y="-977.4219" font-family="Times,serif" font-size="14.00" fill="#000000">socket</text>
<text text-anchor="middle" x="120" y="-962.4219" font-family="Times,serif" font-size="14.00" fill="#000000">(conflicting)</text>
<text text-anchor="middle" x="120" y="-947.4219" font-family="Times,serif" font-size="14.00" fill="#000000">in use?</text>
</g>
<!-- readyend -->
<g id="node3" class="node">
<title>readyend</title>
<ellipse fill="#a5cee3" stroke="#000000" cx="189" cy="-710.0265" rx="37.0935" ry="18"/>
<text text-anchor="middle" x="189" y="-706.3265" font-family="Times,serif" font-size="14.00" fill="#000000">ready</text>
</g>
<!-- sockready&#45;&gt;readyend -->
<g id="edge1" class="edge">
<title>sockready&#45;&gt;readyend</title>
<path fill="none" stroke="#000000" d="M132.0848,-918.8979C142.6147,-878.0875 158.4375,-817.5635 173,-765.0265 175.4438,-756.21 178.1975,-746.6271 180.7228,-737.9673"/>
<polygon fill="#000000" stroke="#000000" points="184.0944,-738.9075 183.55,-728.3267 177.3773,-736.9376 184.0944,-738.9075"/>
<text text-anchor="middle" x="182" y="-809.8742" font-family="Times,serif" font-size="14.00" fill="#000000">no</text>
</g>
<!-- endNotrun -->
<g id="node11" class="node">
<title>endNotrun</title>
<ellipse fill="#a5cee3" stroke="#000000" cx="527" cy="-813.5742" rx="44.5916" ry="44.5916"/>
<ellipse fill="none" stroke="#000000" cx="527" cy="-813.5742" rx="48.5955" ry="48.5955"/>
<text text-anchor="middle" x="527" y="-817.3742" font-family="Times,serif" font-size="14.00" fill="#000000">end</text>
<text text-anchor="middle" x="527" y="-802.3742" font-family="Times,serif" font-size="14.00" fill="#000000">failure</text>
</g>
<!-- sockready&#45;&gt;endNotrun -->
<g id="edge11" class="edge">
<title>sockready&#45;&gt;endNotrun</title>
<path fill="none" stroke="#000000" d="M171.2916,-939.014C190.2843,-929.7976 212.2502,-920.0801 233,-913.1219 258.9506,-904.4198 449.6601,-874.6412 474,-862.1219 477.8074,-860.1636 481.5464,-857.858 485.1668,-855.3336"/>
<polygon fill="#000000" stroke="#000000" points="487.5241,-857.9384 493.3757,-849.1061 483.2934,-852.3616 487.5241,-857.9384"/>
<text text-anchor="middle" x="410.5" y="-883.9219" font-family="Times,serif" font-size="14.00" fill="#000000">yes</text>
</g>
<!-- batready -->
<g id="node2" class="node">
<title>batready</title>
<polygon fill="#a5cee3" stroke="#000000" points="352,-1019.1219 242,-966.1219 352,-913.1219 462,-966.1219 352,-1019.1219"/>
<text text-anchor="middle" x="352" y="-977.4219" font-family="Times,serif" font-size="14.00" fill="#000000">other Batsim</text>
<text text-anchor="middle" x="352" y="-962.4219" font-family="Times,serif" font-size="14.00" fill="#000000">(conflicting)</text>
<text text-anchor="middle" x="352" y="-947.4219" font-family="Times,serif" font-size="14.00" fill="#000000">in use?</text>
</g>
<!-- batready&#45;&gt;readyend -->
<g id="edge2" class="edge">
<title>batready&#45;&gt;readyend</title>
<path fill="none" stroke="#000000" d="M326.1722,-925.5428C292.3271,-872.3676 233.9456,-780.6423 205.5164,-735.9761"/>
<polygon fill="#000000" stroke="#000000" points="208.4072,-733.9994 200.085,-727.4425 202.5018,-737.758 208.4072,-733.9994"/>
<text text-anchor="middle" x="294" y="-809.8742" font-family="Times,serif" font-size="14.00" fill="#000000">no</text>
</g>
<!-- batready&#45;&gt;endNotrun -->
<g id="edge12" class="edge">
<title>batready&#45;&gt;endNotrun</title>
<path fill="none" stroke="#000000" d="M392.4218,-932.2851C416.3285,-912.1192 447.0967,-885.8971 474,-862.1219 477.1557,-859.3332 480.4005,-856.4359 483.6561,-853.5073"/>
<polygon fill="#000000" stroke="#000000" points="486.1659,-855.9565 491.2351,-846.653 481.4706,-850.7647 486.1659,-855.9565"/>
<text text-anchor="middle" x="462.5" y="-883.9219" font-family="Times,serif" font-size="14.00" fill="#000000">yes</text>
</g>
<!-- run -->
<g id="node4" class="node">
<title>run</title>
<ellipse fill="#a5cee3" stroke="#000000" cx="189" cy="-607.1564" rx="84.7059" ry="26.7407"/>
<text text-anchor="middle" x="189" y="-610.9564" font-family="Times,serif" font-size="14.00" fill="#000000">run Batsim</text>
<text text-anchor="middle" x="189" y="-595.9564" font-family="Times,serif" font-size="14.00" fill="#000000">and Scheduler</text>
</g>
<!-- readyend&#45;&gt;run -->
<g id="edge8" class="edge">
<title>readyend&#45;&gt;run</title>
<path fill="none" stroke="#000000" d="M189,-691.6354C189,-678.5511 189,-660.5195 189,-644.4745"/>
<polygon fill="#000000" stroke="#000000" points="192.5001,-644.2894 189,-634.2894 185.5001,-644.2895 192.5001,-644.2894"/>
</g>
<!-- execstatus -->
<g id="node5" class="node">
<title>execstatus</title>
<polygon fill="#a5cee3" stroke="#000000" points="189,-505.2864 70,-467.2864 189,-429.2864 308,-467.2864 189,-505.2864"/>
<text text-anchor="middle" x="189" y="-471.0864" font-family="Times,serif" font-size="14.00" fill="#000000">both complete</text>
<text text-anchor="middle" x="189" y="-456.0864" font-family="Times,serif" font-size="14.00" fill="#000000">successfully?</text>
</g>
<!-- run&#45;&gt;execstatus -->
<g id="edge3" class="edge">
<title>run&#45;&gt;execstatus</title>
<path fill="none" stroke="#000000" d="M189,-580.1881C189,-561.8904 189,-537.1858 189,-515.5513"/>
<polygon fill="#000000" stroke="#000000" points="192.5001,-515.5411 189,-505.5411 185.5001,-515.5412 192.5001,-515.5411"/>
</g>
<!-- execend -->
<g id="node6" class="node">
<title>execend</title>
<ellipse fill="#a5cee3" stroke="#000000" cx="189" cy="-196.7853" rx="78.7863" ry="18"/>
<text text-anchor="middle" x="189" y="-193.0853" font-family="Times,serif" font-size="14.00" fill="#000000">Simulation OK</text>
</g>
<!-- execstatus&#45;&gt;execend -->
<g id="edge4" class="edge">
<title>execstatus&#45;&gt;execend</title>
<path fill="none" stroke="#000000" d="M189,-429.1039C189,-374.1345 189,-273.9522 189,-225.095"/>
<polygon fill="#000000" stroke="#000000" points="192.5001,-224.9322 189,-214.9322 185.5001,-224.9323 192.5001,-224.9322"/>
<text text-anchor="middle" x="201.5" y="-316.1097" font-family="Times,serif" font-size="14.00" fill="#000000">yes</text>
</g>
<!-- kill -->
<g id="node7" class="node">
<title>kill</title>
<ellipse fill="#a5cee3" stroke="#000000" cx="416" cy="-319.8097" rx="84.2917" ry="37.4533"/>
<text text-anchor="middle" x="416" y="-331.1097" font-family="Times,serif" font-size="14.00" fill="#000000">Kill pending</text>
<text text-anchor="middle" x="416" y="-316.1097" font-family="Times,serif" font-size="14.00" fill="#000000">processes and</text>
<text text-anchor="middle" x="416" y="-301.1097" font-family="Times,serif" font-size="14.00" fill="#000000">their children</text>
</g>
<!-- execstatus&#45;&gt;kill -->
<g id="edge5" class="edge">
<title>execstatus&#45;&gt;kill</title>
<path fill="none" stroke="#000000" d="M231.6947,-442.6614C257.5546,-427.4704 291.0306,-407.313 320,-388.2864 334.4472,-378.7977 349.8069,-368.1196 363.9057,-358.0687"/>
<polygon fill="#000000" stroke="#000000" points="365.9545,-360.9065 372.0448,-352.2371 361.8775,-355.2163 365.9545,-360.9065"/>
<text text-anchor="middle" x="315" y="-400.0864" font-family="Times,serif" font-size="14.00" fill="#000000">no</text>
</g>
<!-- endOK -->
<g id="node9" class="node">
<title>endOK</title>
<ellipse fill="#a5cee3" stroke="#000000" cx="189" cy="-55.6188" rx="51.7293" ry="51.7293"/>
<ellipse fill="none" stroke="#000000" cx="189" cy="-55.6188" rx="55.7378" ry="55.7378"/>
<text text-anchor="middle" x="189" y="-59.4188" font-family="Times,serif" font-size="14.00" fill="#000000">end</text>
<text text-anchor="middle" x="189" y="-44.4188" font-family="Times,serif" font-size="14.00" fill="#000000">success</text>
</g>
<!-- execend&#45;&gt;endOK -->
<g id="edge9" class="edge">
<title>execend&#45;&gt;endOK</title>
<path fill="none" stroke="#000000" d="M189,-178.6193C189,-164.0285 189,-142.5916 189,-121.6852"/>
<polygon fill="#000000" stroke="#000000" points="192.5001,-121.497 189,-111.4971 185.5001,-121.4971 192.5001,-121.497"/>
</g>
<!-- endFail -->
<g id="node10" class="node">
<title>endFail</title>
<ellipse fill="#a5cee3" stroke="#000000" cx="416" cy="-196.7853" rx="44.5916" ry="44.5916"/>
<ellipse fill="none" stroke="#000000" cx="416" cy="-196.7853" rx="48.5955" ry="48.5955"/>
<text text-anchor="middle" x="416" y="-200.5853" font-family="Times,serif" font-size="14.00" fill="#000000">end</text>
<text text-anchor="middle" x="416" y="-185.5853" font-family="Times,serif" font-size="14.00" fill="#000000">failure</text>
</g>
<!-- kill&#45;&gt;endFail -->
<g id="edge10" class="edge">
<title>kill&#45;&gt;endFail</title>
<path fill="none" stroke="#000000" d="M416,-282.2299C416,-273.81 416,-264.6813 416,-255.6298"/>
<polygon fill="#000000" stroke="#000000" points="419.5001,-255.4851 416,-245.4851 412.5001,-255.4851 419.5001,-255.4851"/>
</g>
<!-- start -->
<g id="node8" class="node">
<title>start</title>
<ellipse fill="#a5cee3" stroke="#000000" cx="235" cy="-1095.1219" rx="33.2948" ry="18"/>
<text text-anchor="middle" x="235" y="-1091.4219" font-family="Times,serif" font-size="14.00" fill="#000000">start</text>
</g>
<!-- start&#45;&gt;sockready -->
<g id="edge6" class="edge">
<title>start&#45;&gt;sockready</title>
<path fill="none" stroke="#000000" d="M220.4352,-1078.784C205.1103,-1061.5935 180.332,-1033.7987 159.222,-1010.1188"/>
<polygon fill="#000000" stroke="#000000" points="161.7807,-1007.7292 152.5136,-1002.5938 156.5555,-1012.3873 161.7807,-1007.7292"/>
</g>
<!-- start&#45;&gt;batready -->
<g id="edge7" class="edge">
<title>start&#45;&gt;batready</title>
<path fill="none" stroke="#000000" d="M249.8181,-1078.784C265.2986,-1061.7158 290.2604,-1034.1938 311.6367,-1010.625"/>
<polygon fill="#000000" stroke="#000000" points="314.3089,-1012.8886 318.4345,-1003.13 309.1238,-1008.1859 314.3089,-1012.8886"/>
</g>
</g>
</svg>
