<?xml version="1.0" encoding="UTF-8" standalone="no"?>
<!DOCTYPE svg PUBLIC "-//W3C//DTD SVG 1.1//EN"
 "http://www.w3.org/Graphics/SVG/1.1/DTD/svg11.dtd">
<!-- Generated by graphviz version 2.40.1 (20161225.0304)
 -->
<!-- Title: G Pages: 1 -->
<svg width="264pt" height="626pt"
 viewBox="0.00 0.00 264.00 625.90" xmlns="http://www.w3.org/2000/svg" xmlns:xlink="http://www.w3.org/1999/xlink">
<g id="graph0" class="graph" transform="scale(1 1) rotate(0) translate(4 621.895)">
<title>G</title>
<polygon fill="#ffffff" stroke="transparent" points="-4,4 -4,-621.895 260,-621.895 260,4 -4,4"/>
<g id="clust1" class="cluster">
<title>cluster_1</title>
<polygon fill="#b1df89" stroke="#000000" points="8,-92.895 8,-554.895 248,-554.895 248,-92.895 8,-92.895"/>
<text text-anchor="middle" x="205" y="-539.695" font-family="Times,serif" font-size="14.00" fill="#000000">execution</text>
</g>
<!-- runbat -->
<g id="node1" class="node">
<title>runbat</title>
<ellipse fill="#a5cee3" stroke="#000000" cx="128" cy="-505.895" rx="62.2891" ry="18"/>
<text text-anchor="middle" x="128" y="-502.195" font-family="Times,serif" font-size="14.00" fill="#000000">run Batsim</text>
</g>
<!-- batstatus -->
<g id="node2" class="node">
<title>batstatus</title>
<polygon fill="#a5cee3" stroke="#000000" points="128,-412.895 16,-374.895 128,-336.895 240,-374.895 128,-412.895"/>
<text text-anchor="middle" x="128" y="-378.695" font-family="Times,serif" font-size="14.00" fill="#000000">completes</text>
<text text-anchor="middle" x="128" y="-363.695" font-family="Times,serif" font-size="14.00" fill="#000000">successfully?</text>
</g>
<!-- runbat&#45;&gt;batstatus -->
<g id="edge1" class="edge">
<title>runbat&#45;&gt;batstatus</title>
<path fill="none" stroke="#000000" d="M128,-487.6801C128,-471.0363 128,-445.6707 128,-423.2073"/>
<polygon fill="#000000" stroke="#000000" points="131.5001,-423.1323 128,-413.1323 124.5001,-423.1323 131.5001,-423.1323"/>
</g>
<!-- batok -->
<g id="node3" class="node">
<title>batok</title>
<ellipse fill="#a5cee3" stroke="#000000" cx="128" cy="-229.895" rx="61.1893" ry="18"/>
<text text-anchor="middle" x="128" y="-226.195" font-family="Times,serif" font-size="14.00" fill="#000000">Batsim OK</text>
</g>
<!-- batstatus&#45;&gt;batok -->
<g id="edge2" class="edge">
<title>batstatus&#45;&gt;batok</title>
<path fill="none" stroke="#000000" d="M128,-336.798C128,-312.1369 128,-280.5621 128,-258.1374"/>
<polygon fill="#000000" stroke="#000000" points="131.5001,-257.9342 128,-247.9343 124.5001,-257.9343 131.5001,-257.9342"/>
<text text-anchor="middle" x="140.5" y="-288.695" font-family="Times,serif" font-size="14.00" fill="#000000">yes</text>
</g>
<!-- execend -->
<g id="node4" class="node">
<title>execend</title>
<ellipse fill="#a5cee3" stroke="#000000" cx="128" cy="-118.895" rx="78.7863" ry="18"/>
<text text-anchor="middle" x="128" y="-115.195" font-family="Times,serif" font-size="14.00" fill="#000000">Simulation OK</text>
</g>
<!-- batok&#45;&gt;execend -->
<g id="edge3" class="edge">
<title>batok&#45;&gt;execend</title>
<path fill="none" stroke="#000000" d="M128,-211.5656C128,-194.1323 128,-167.6432 128,-147.4439"/>
<polygon fill="#000000" stroke="#000000" points="131.5001,-147.2516 128,-137.2517 124.5001,-147.2517 131.5001,-147.2516"/>
</g>
<!-- end -->
<g id="node6" class="node">
<title>end</title>
<ellipse fill="#a5cee3" stroke="#000000" cx="128" cy="-31.9475" rx="27.9017" ry="27.9017"/>
<ellipse fill="none" stroke="#000000" cx="128" cy="-31.9475" rx="31.8951" ry="31.8951"/>
<text text-anchor="middle" x="128" y="-28.2475" font-family="Times,serif" font-size="14.00" fill="#000000">end</text>
</g>
<!-- execend&#45;&gt;end -->
<g id="edge5" class="edge">
<title>execend&#45;&gt;end</title>
<path fill="none" stroke="#000000" d="M128,-100.8795C128,-93.0623 128,-83.5496 128,-74.1187"/>
<polygon fill="#000000" stroke="#000000" points="131.5001,-74.0013 128,-64.0013 124.5001,-74.0014 131.5001,-74.0013"/>
</g>
<!-- start -->
<g id="node5" class="node">
<title>start</title>
<ellipse fill="#a5cee3" stroke="#000000" cx="128" cy="-599.895" rx="33.2948" ry="18"/>
<text text-anchor="middle" x="128" y="-596.195" font-family="Times,serif" font-size="14.00" fill="#000000">start</text>
</g>
<!-- start&#45;&gt;runbat -->
<g id="edge4" class="edge">
<title>start&#45;&gt;runbat</title>
<path fill="none" stroke="#000000" d="M128,-581.7709C128,-568.2466 128,-549.5143 128,-534.0464"/>
<polygon fill="#000000" stroke="#000000" points="131.5001,-533.9635 128,-523.9635 124.5001,-533.9636 131.5001,-533.9635"/>
</g>
</g>
</svg>
