<?xml version="1.0" encoding="UTF-8" standalone="no"?>
<!DOCTYPE svg PUBLIC "-//W3C//DTD SVG 1.1//EN"
 "http://www.w3.org/Graphics/SVG/1.1/DTD/svg11.dtd">
<!-- Generated by graphviz version 2.40.1 (20161225.0304)
 -->
<!-- Title: G Pages: 1 -->
<svg width="584pt" height="987pt"
 viewBox="0.00 0.00 583.55 987.12" xmlns="http://www.w3.org/2000/svg" xmlns:xlink="http://www.w3.org/1999/xlink">
<g id="graph0" class="graph" transform="scale(1 1) rotate(0) translate(4 983.1219)">
<title>G</title>
<polygon fill="#ffffff" stroke="transparent" points="-4,4 -4,-983.1219 579.5477,-983.1219 579.5477,4 -4,4"/>
<g id="clust1" class="cluster">
<title>cluster_0</title>
<polygon fill="#b1df89" stroke="#000000" points="8,-600.0265 8,-926.1219 470,-926.1219 470,-600.0265 8,-600.0265"/>
<text text-anchor="middle" x="411" y="-910.9219" font-family="Times,serif" font-size="14.00" fill="#000000">context check</text>
</g>
<g id="clust2" class="cluster">
<title>cluster_1</title>
<polygon fill="#b1df89" stroke="#000000" points="62,-150.7853 62,-583.0265 316,-583.0265 316,-150.7853 62,-150.7853"/>
<text text-anchor="middle" x="273" y="-567.8265" font-family="Times,serif" font-size="14.00" fill="#000000">execution</text>
</g>
<g id="clust3" class="cluster">
<title>cluster_2</title>
<polygon fill="#b1df89" stroke="#000000" points="324,-242.333 324,-356.2864 508,-356.2864 508,-242.333 324,-242.333"/>
<text text-anchor="middle" x="471.5" y="-341.0864" font-family="Times,serif" font-size="14.00" fill="#000000">cleanup</text>
</g>
<!-- sockready -->
<g id="node1" class="node">
<title>sockready</title>
<polygon fill="#a5cee3" stroke="#000000" points="120,-895.1219 16,-842.1219 120,-789.1219 224,-842.1219 120,-895.1219"/>
<text text-anchor="middle" x="120" y="-853.4219" font-family="Times,serif" font-size="14.00" fill="#000000">socket</text>
<text text-anchor="middle" x="120" y="-838.4219" font-family="Times,serif" font-size="14.00" fill="#000000">(conflicting)</text>
<text text-anchor="middle" x="120" y="-823.4219" font-family="Times,serif" font-size="14.00" fill="#000000">in use?</text>
</g>
<!-- readyend -->
<g id="node3" class="node">
<title>readyend</title>
<ellipse fill="#a5cee3" stroke="#000000" cx="189" cy="-626.0265" rx="37.0935" ry="18"/>
<text text-anchor="middle" x="189" y="-622.3265" font-family="Times,serif" font-size="14.00" fill="#000000">ready</text>
</g>
<!-- sockready&#45;&gt;readyend -->
<g id="edge1" class="edge">
<title>sockready&#45;&gt;readyend</title>
<path fill="none" stroke="#000000" d="M131.7954,-794.992C141.5094,-758.0832 156.3544,-705.6898 173,-661.0265 174.0062,-658.3266 175.1275,-655.5432 176.2964,-652.7809"/>
<polygon fill="#000000" stroke="#000000" points="179.503,-654.1837 180.3569,-643.6233 173.1039,-651.3463 179.503,-654.1837"/>
<text text-anchor="middle" x="182" y="-705.8742" font-family="Times,serif" font-size="14.00" fill="#000000">no</text>
</g>
<!-- endNotrun -->
<g id="node11" class="node">
<title>endNotrun</title>
<ellipse fill="#a5cee3" stroke="#000000" cx="527" cy="-709.5742" rx="44.5916" ry="44.5916"/>
<ellipse fill="none" stroke="#000000" cx="527" cy="-709.5742" rx="48.5955" ry="48.5955"/>
<text text-anchor="middle" x="527" y="-713.3742" font-family="Times,serif" font-size="14.00" fill="#000000">end</text>
<text text-anchor="middle" x="527" y="-698.3742" font-family="Times,serif" font-size="14.00" fill="#000000">failure</text>
</g>
<!-- sockready&#45;&gt;endNotrun -->
<g id="edge11" class="edge">
<title>sockready&#45;&gt;endNotrun</title>
<path fill="none" stroke="#000000" d="M170.1589,-814.5028C189.3108,-805.0623 211.6746,-795.3292 233,-789.1219 236.2403,-788.1788 470.9391,-759.5434 474,-758.1219 478.0566,-756.2381 482.0162,-753.9301 485.8265,-751.3536"/>
<polygon fill="#000000" stroke="#000000" points="487.972,-754.1198 493.9091,-745.3447 483.7956,-748.5021 487.972,-754.1198"/>
<text text-anchor="middle" x="420.5" y="-769.9219" font-family="Times,serif" font-size="14.00" fill="#000000">yes</text>
</g>
<!-- batready -->
<g id="node2" class="node">
<title>batready</title>
<polygon fill="#a5cee3" stroke="#000000" points="352,-895.1219 242,-842.1219 352,-789.1219 462,-842.1219 352,-895.1219"/>
<text text-anchor="middle" x="352" y="-853.4219" font-family="Times,serif" font-size="14.00" fill="#000000">other Batsim</text>
<text text-anchor="middle" x="352" y="-838.4219" font-family="Times,serif" font-size="14.00" fill="#000000">(conflicting)</text>
<text text-anchor="middle" x="352" y="-823.4219" font-family="Times,serif" font-size="14.00" fill="#000000">in use?</text>
</g>
<!-- batready&#45;&gt;readyend -->
<g id="edge2" class="edge">
<title>batready&#45;&gt;readyend</title>
<path fill="none" stroke="#000000" d="M316.0176,-806.2401C308.4866,-798.1974 300.7799,-789.5464 294,-781.1219 259.3016,-738.0074 224.3296,-683.6672 204.785,-652.0851"/>
<polygon fill="#000000" stroke="#000000" points="207.6827,-650.1156 199.4632,-643.4305 201.7198,-653.7822 207.6827,-650.1156"/>
<text text-anchor="middle" x="284" y="-705.8742" font-family="Times,serif" font-size="14.00" fill="#000000">no</text>
</g>
<!-- batready&#45;&gt;endNotrun -->
<g id="edge12" class="edge">
<title>batready&#45;&gt;endNotrun</title>
<path fill="none" stroke="#000000" d="M399.4369,-811.6844C422.4832,-796.3429 450.2585,-777.0196 474,-758.1219 477.295,-755.4992 480.6424,-752.7242 483.971,-749.8827"/>
<polygon fill="#000000" stroke="#000000" points="486.4315,-752.381 491.6705,-743.1721 481.8323,-747.104 486.4315,-752.381"/>
<text text-anchor="middle" x="473.5" y="-769.9219" font-family="Times,serif" font-size="14.00" fill="#000000">yes</text>
</g>
<!-- run -->
<g id="node4" class="node">
<title>run</title>
<ellipse fill="#a5cee3" stroke="#000000" cx="189" cy="-525.1564" rx="84.7059" ry="26.7407"/>
<text text-anchor="middle" x="189" y="-528.9564" font-family="Times,serif" font-size="14.00" fill="#000000">run Batsim</text>
<text text-anchor="middle" x="189" y="-513.9564" font-family="Times,serif" font-size="14.00" fill="#000000">and Scheduler</text>
</g>
<!-- readyend&#45;&gt;run -->
<g id="edge8" class="edge">
<title>readyend&#45;&gt;run</title>
<path fill="none" stroke="#000000" d="M189,-607.9929C189,-595.3773 189,-578.0712 189,-562.5388"/>
<polygon fill="#000000" stroke="#000000" points="192.5001,-562.1484 189,-552.1484 185.5001,-562.1484 192.5001,-562.1484"/>
</g>
<!-- execstatus -->
<g id="node5" class="node">
<title>execstatus</title>
<polygon fill="#a5cee3" stroke="#000000" points="189,-463.2864 70,-425.2864 189,-387.2864 308,-425.2864 189,-463.2864"/>
<text text-anchor="middle" x="189" y="-429.0864" font-family="Times,serif" font-size="14.00" fill="#000000">both complete</text>
<text text-anchor="middle" x="189" y="-414.0864" font-family="Times,serif" font-size="14.00" fill="#000000">successfully?</text>
</g>
<!-- run&#45;&gt;execstatus -->
<g id="edge3" class="edge">
<title>run&#45;&gt;execstatus</title>
<path fill="none" stroke="#000000" d="M189,-498.1301C189,-490.5734 189,-482.1231 189,-473.729"/>
<polygon fill="#000000" stroke="#000000" points="192.5001,-473.5819 189,-463.5819 185.5001,-473.5819 192.5001,-473.5819"/>
</g>
<!-- execend -->
<g id="node6" class="node">
<title>execend</title>
<ellipse fill="#a5cee3" stroke="#000000" cx="189" cy="-176.7853" rx="78.7863" ry="18"/>
<text text-anchor="middle" x="189" y="-173.0853" font-family="Times,serif" font-size="14.00" fill="#000000">Simulation OK</text>
</g>
<!-- execstatus&#45;&gt;execend -->
<g id="edge4" class="edge">
<title>execstatus&#45;&gt;execend</title>
<path fill="none" stroke="#000000" d="M189,-387.2739C189,-337.0317 189,-249.6676 189,-204.9381"/>
<polygon fill="#000000" stroke="#000000" points="192.5001,-204.7881 189,-194.7882 185.5001,-204.7882 192.5001,-204.7881"/>
<text text-anchor="middle" x="201.5" y="-284.1097" font-family="Times,serif" font-size="14.00" fill="#000000">yes</text>
</g>
<!-- kill -->
<g id="node7" class="node">
<title>kill</title>
<ellipse fill="#a5cee3" stroke="#000000" cx="416" cy="-287.8097" rx="84.2917" ry="37.4533"/>
<text text-anchor="middle" x="416" y="-299.1097" font-family="Times,serif" font-size="14.00" fill="#000000">Kill pending</text>
<text text-anchor="middle" x="416" y="-284.1097" font-family="Times,serif" font-size="14.00" fill="#000000">processes and</text>
<text text-anchor="middle" x="416" y="-269.1097" font-family="Times,serif" font-size="14.00" fill="#000000">their children</text>
</g>
<!-- execstatus&#45;&gt;kill -->
<g id="edge5" class="edge">
<title>execstatus&#45;&gt;kill</title>
<path fill="none" stroke="#000000" d="M236.2317,-402.3507C261.5346,-389.5826 292.9725,-372.9388 320,-356.2864 334.8614,-347.1299 350.4728,-336.4764 364.6859,-326.3389"/>
<polygon fill="#000000" stroke="#000000" points="366.804,-329.1268 372.8766,-320.445 362.7154,-323.445 366.804,-329.1268"/>
<text text-anchor="middle" x="315" y="-368.0864" font-family="Times,serif" font-size="14.00" fill="#000000">no</text>
</g>
<!-- endOK -->
<g id="node9" class="node">
<title>endOK</title>
<ellipse fill="#a5cee3" stroke="#000000" cx="189" cy="-55.6188" rx="51.7293" ry="51.7293"/>
<ellipse fill="none" stroke="#000000" cx="189" cy="-55.6188" rx="55.7378" ry="55.7378"/>
<text text-anchor="middle" x="189" y="-59.4188" font-family="Times,serif" font-size="14.00" fill="#000000">end</text>
<text text-anchor="middle" x="189" y="-44.4188" font-family="Times,serif" font-size="14.00" fill="#000000">success</text>
</g>
<!-- execend&#45;&gt;endOK -->
<g id="edge9" class="edge">
<title>execend&#45;&gt;endOK</title>
<path fill="none" stroke="#000000" d="M189,-158.6455C189,-148.5973 189,-135.4186 189,-121.8587"/>
<polygon fill="#000000" stroke="#000000" points="192.5001,-121.4606 189,-111.4606 185.5001,-121.4606 192.5001,-121.4606"/>
</g>
<!-- endFail -->
<g id="node10" class="node">
<title>endFail</title>
<ellipse fill="#a5cee3" stroke="#000000" cx="416" cy="-176.7853" rx="44.5916" ry="44.5916"/>
<ellipse fill="none" stroke="#000000" cx="416" cy="-176.7853" rx="48.5955" ry="48.5955"/>
<text text-anchor="middle" x="416" y="-180.5853" font-family="Times,serif" font-size="14.00" fill="#000000">end</text>
<text text-anchor="middle" x="416" y="-165.5853" font-family="Times,serif" font-size="14.00" fill="#000000">failure</text>
</g>
<!-- kill&#45;&gt;endFail -->
<g id="edge10" class="edge">
<title>kill&#45;&gt;endFail</title>
<path fill="none" stroke="#000000" d="M416,-250.2219C416,-245.5156 416,-240.6167 416,-235.682"/>
<polygon fill="#000000" stroke="#000000" points="419.5001,-235.5529 416,-225.5529 412.5001,-235.5529 419.5001,-235.5529"/>
</g>
<!-- start -->
<g id="node8" class="node">
<title>start</title>
<ellipse fill="#a5cee3" stroke="#000000" cx="235" cy="-961.1219" rx="33.2948" ry="18"/>
<text text-anchor="middle" x="235" y="-957.4219" font-family="Times,serif" font-size="14.00" fill="#000000">start</text>
</g>
<!-- start&#45;&gt;sockready -->
<g id="edge6" class="edge">
<title>start&#45;&gt;sockready</title>
<path fill="none" stroke="#000000" d="M219.4906,-945.0731C204.6831,-929.7505 181.7066,-905.9749 161.5632,-885.1308"/>
<polygon fill="#000000" stroke="#000000" points="164.0405,-882.6577 154.5744,-877.899 159.0068,-887.5221 164.0405,-882.6577"/>
</g>
<!-- start&#45;&gt;batready -->
<g id="edge7" class="edge">
<title>start&#45;&gt;batready</title>
<path fill="none" stroke="#000000" d="M250.7791,-945.0731C265.7326,-929.864 288.8744,-906.3266 309.2581,-885.5945"/>
<polygon fill="#000000" stroke="#000000" points="311.8199,-887.9811 316.3351,-878.3965 306.8284,-883.0735 311.8199,-887.9811"/>
</g>
</g>
</svg>
